<svg width="24" height="21" viewBox="0 0 24 21" fill="none" xmlns="http://www.w3.org/2000/svg">
<path d="M23 19.01H22V14C21.9987 13.0282 21.7143 12.0779 21.1815 11.2652C20.6487 10.4525 19.8906 9.81269 19 9.42399V8.99999C18.9977 8.22771 18.8158 7.46656 18.4687 6.77669C18.1216 6.08681 17.6188 5.48712 17 5.02499L16.161 0.8C16.1149 0.573959 15.992 0.370824 15.8132 0.225023C15.6344 0.0792215 15.4107 -0.000277029 15.18 7.25359e-07H14.82C14.5893 -0.000277029 14.3656 0.0792215 14.1868 0.225023C14.008 0.370824 13.8851 0.573959 13.839 0.8L13.2 4H10.25L11 0.999999C11 0.734783 10.8946 0.48043 10.7071 0.292893C10.5196 0.105357 10.2652 7.25359e-07 10 7.25359e-07H8C7.73478 7.25359e-07 7.48043 0.105357 7.29289 0.292893C7.10536 0.48043 7 0.734783 7 0.999999L7.873 4.49299C7.01625 4.89478 6.29131 5.53175 5.78266 6.3297C5.274 7.12765 5.00258 8.05371 5 8.99999V9.42399C4.10936 9.81269 3.35129 10.4525 2.8185 11.2652C2.28571 12.0779 2.00128 13.0282 2 14V19.01H1C0.734784 19.01 0.48043 19.1153 0.292893 19.3029C0.105357 19.4904 0 19.7448 0 20.01C0 20.2752 0.105357 20.5295 0.292893 20.7171C0.48043 20.9046 0.734784 21.01 1 21.01H23C23.2652 21.01 23.5196 20.9046 23.7071 20.7171C23.8946 20.5295 24 20.2752 24 20.01C24 19.7448 23.8946 19.4904 23.7071 19.3029C23.5196 19.1153 23.2652 19.01 23 19.01ZM10 5.99999H14C14.7956 5.99999 15.5587 6.31606 16.1213 6.87867C16.6839 7.44128 17 8.20434 17 8.99999H7C7 8.20434 7.31607 7.44128 7.87868 6.87867C8.44129 6.31606 9.20435 5.99999 10 5.99999ZM7 11H17C17.7956 11 18.5587 11.3161 19.1213 11.8787C19.6839 12.4413 20 13.2043 20 14V14.98C19.064 14.88 18.5 14.28 18.5 14C18.5 13.7348 18.3946 13.4804 18.2071 13.2929C18.0196 13.1053 17.7652 13 17.5 13C17.2348 13 16.9804 13.1053 16.7929 13.2929C16.6054 13.4804 16.5 13.7348 16.5 14C16.5 14.344 15.818 15 14.75 15C13.661 15 13 14.306 13 14C13 13.7348 12.8946 13.4804 12.7071 13.2929C12.5196 13.1053 12.2652 13 12 13C11.7348 13 11.4804 13.1053 11.2929 13.2929C11.1054 13.4804 11 13.7348 11 14C11 14.344 10.318 15 9.25 15C8.161 15 7.5 14.306 7.5 14C7.5 13.7348 7.39464 13.4804 7.20711 13.2929C7.01957 13.1053 6.76522 13 6.5 13C6.23478 13 5.98043 13.1053 5.79289 13.2929C5.60536 13.4804 5.5 13.7348 5.5 14C5.5 14.316 4.921 14.888 4 14.981V14C4 13.2043 4.31607 12.4413 4.87868 11.8787C5.44129 11.3161 6.20435 11 7 11ZM4 16.979C4.91869 16.9382 5.79793 16.5939 6.5 16C7.27136 16.643 8.24308 16.9964 9.2473 16.9991C10.2515 17.0018 11.2251 16.6538 12 16.015C12.7749 16.6538 13.7485 17.0018 14.7527 16.9991C15.7569 16.9964 16.7286 16.643 17.5 16C18.2022 16.5935 19.0814 16.9375 20 16.978V19.01H4V16.979Z" fill="#5D586C"/>
</svg>
