<svg width="25" height="24" viewBox="0 0 25 24" fill="none" xmlns="http://www.w3.org/2000/svg">
<g clip-path="url(#clip0_811_4419)">
<path d="M21.951 5.00051C21.642 5.00051 21.365 4.82951 21.227 4.55351C20.748 3.59551 19.785 3.00051 18.715 3.00051H17.333V0.770508C17.333 0.245508 16.811 -0.133492 16.318 0.0445077C15.161 0.460508 14.333 1.56751 14.333 2.86851V4.50051L13.369 7.33951C13.226 7.73451 12.848 7.99951 12.429 8.00051L7.33101 8.00351C6.24001 8.00351 5.23101 8.35651 4.40801 8.95151C3.80801 8.67451 2.33301 7.81051 2.33301 6.00051C2.33301 5.44851 1.88501 5.00051 1.33301 5.00051C0.781008 5.00051 0.333008 5.44851 0.333008 6.00051C0.333008 8.47251 1.92901 9.83451 3.02101 10.4765C2.58401 11.2185 2.33401 12.0825 2.33401 13.0045L2.33601 21.0065C2.33601 22.6595 3.68201 24.0045 5.33501 24.0045C6.98801 24.0045 8.33401 22.6595 8.33401 21.0055V19.0035L13.334 19.0005V21.0015C13.334 22.6545 14.679 24.0005 16.339 24.0005C17.999 24.0005 19.338 22.6555 19.338 21.0015V18.2355C19.338 17.8175 19.382 17.3985 19.469 16.9885L20.531 11.9945C22.646 11.8925 24.335 10.1395 24.335 7.99951V7.49951C24.335 5.66551 22.911 4.99951 21.953 4.99951L21.951 5.00051ZM22.333 8.00051C22.333 9.10351 21.436 10.0005 20.333 10.0005C19.506 10.0005 18.782 10.5875 18.612 11.3945L17.511 16.5735C17.395 17.1195 17.336 17.6785 17.336 18.2365V21.0025C17.336 21.5535 16.888 22.0015 16.331 22.0015C15.78 22.0015 15.332 21.5535 15.332 21.0025V18.0015C15.332 17.7365 15.227 17.4815 15.039 17.2935C14.851 17.1065 14.597 17.0015 14.332 17.0015L7.33201 17.0055C6.78001 17.0055 6.33201 17.4535 6.33201 18.0055V21.0065C6.33201 21.5575 5.88401 22.0055 5.33301 22.0055C4.78201 22.0055 4.33401 21.5575 4.33401 21.0065L4.33201 13.0045C4.33201 11.3505 5.67701 10.0045 7.33001 10.0035L12.428 10.0005C13.687 10.0005 14.821 9.20351 15.248 8.01851L16.337 5.00051H18.712C19.021 5.00051 19.298 5.17151 19.436 5.44751C19.915 6.40551 20.878 7.00051 21.948 7.00051C22.33 7.00051 22.33 7.36351 22.33 7.50051V8.00051H22.333Z" fill="#6F6B7D"/>
</g>
<defs>
<clipPath id="clip0_811_4419">
<rect width="24" height="24" fill="white" transform="translate(0.333008)"/>
</clipPath>
</defs>
</svg>
