<svg width="25" height="24" viewBox="0 0 25 24" fill="none" xmlns="http://www.w3.org/2000/svg">
<g clip-path="url(#clip0_811_4445)">
<path d="M19.6667 16H3.16675C1.78875 16 0.666748 17.121 0.666748 18.5V19.5C0.666748 20.879 1.78875 22 3.16675 22H19.6667C20.2187 22 20.6667 21.553 20.6667 21V17C20.6667 16.447 20.2187 16 19.6667 16ZM2.66675 19.5V18.5C2.66675 18.225 2.89075 18 3.16675 18H7.66675V20H3.16675C2.89075 20 2.66675 19.775 2.66675 19.5ZM18.6667 20H9.66675V18H18.6667V20ZM24.6667 17V21C24.6667 21.553 24.2187 22 23.6667 22C23.1147 22 22.6667 21.553 22.6667 21V17C22.6667 16.447 23.1147 16 23.6667 16C24.2187 16 24.6667 16.447 24.6667 17ZM20.6667 11.82V13C20.6667 13.553 20.2187 14 19.6667 14C19.1147 14 18.6667 13.553 18.6667 13V11.82C18.6667 11.122 18.2947 10.464 17.6947 10.104L16.0937 9.143C14.5967 8.245 13.6667 6.602 13.6667 4.856V3C13.6667 2.447 14.1147 2 14.6667 2C15.2187 2 15.6667 2.447 15.6667 3V4.856C15.6667 5.904 16.2247 6.889 17.1237 7.428L18.7257 8.389C19.9237 9.109 20.6667 10.423 20.6667 11.82ZM24.6667 10.264V10.999C24.6667 11.552 24.2187 11.999 23.6667 11.999C23.1147 11.999 22.6667 11.552 22.6667 10.999V10.264C22.6667 9.216 22.1087 8.231 21.2097 7.692L19.1227 6.44C18.2237 5.9 17.6657 4.914 17.6657 3.867V1C17.6657 0.447 18.1137 0 18.6657 0C19.2177 0 19.6657 0.447 19.6657 1V3.867C19.6657 4.217 19.8527 4.546 20.1517 4.725L22.2377 5.977C23.7347 6.875 24.6647 8.518 24.6647 10.264H24.6667Z" fill="#5D586C"/>
</g>
<defs>
<clipPath id="clip0_811_4445">
<rect width="24" height="24" fill="white" transform="translate(0.666748)"/>
</clipPath>
</defs>
</svg>
